<svg width="20px" height="20px" viewBox="0 0 20 20" version="1.1" xmlns="http://www.w3.org/2000/svg" xmlns:xlink="http://www.w3.org/1999/xlink">
<g stroke="none" stroke-width="1" fill-rule="evenodd"> <g> <g id="Rectangle-3-+-A" transform="translate(1.000000, 2.000000)"> <path d="M10,10 C12.28,10 14,6.84 14,4 C14,1.8 12.2,0 10,0 C7.8,0 6,1.8 6,4 C6,6.5 7.52,10 10,10 L10,10 Z M4.94,7.74 C4.98,7.66 5,7.58 5,7.5 C5,7.42 4.98,7.34 4.94,7.26 C4.92,7.22 4.9,7.18 4.86,7.14 L2.86,5.14 C2.66,4.96 2.34,4.96 2.14,5.14 C1.96,5.34 1.96,5.66 2.14,5.86 L3.3,7 L0.5,7 C0.22,7 0,7.22 0,7.5 C0,7.78 0.22,8 0.5,8 L3.3,8 L2.14,9.14 C1.96,9.34 1.96,9.66 2.14,9.86 C2.24,9.96 2.38,10 2.5,10 C2.62,10 2.76,9.96 2.86,9.86 L4.86,7.86 C4.9,7.82 4.92,7.78 4.94,7.74 L4.94,7.74 Z M16.76,12.88 C16.56,12 15.9,11.28 15.02,11.04 L12.72,10.36 C12.58,10.32 12.46,10.26 12.36,10.14 C12.16,9.96 11.84,9.96 11.66,10.16 C11.46,10.34 8.54,10.34 8.36,10.14 C8.16,9.96 7.84,9.96 7.64,10.14 C7.54,10.24 7.42,10.32 7.28,10.36 L5.04,10.96 C4.14,11.2 3.46,11.92 3.24,12.82 L3.02,13.9 C2.98,14.06 3.02,14.24 3.14,14.36 C3.22,14.42 4.86,16 10,16 C15.14,16 16.78,14.42 16.86,14.36 C16.98,14.24 17.02,14.06 16.98,13.9 L16.76,12.88 Z" fill-opacity="0.06"></path> <path d="M10,10 C12.28,10 14,6.84 14,4 C14,1.8 12.2,0 10,0 C7.8,0 6,1.8 6,4 C6,6.5 7.52,10 10,10 L10,10 Z M10,1 C11.66,1 13,2.34 13,4 C13,6.26 11.62,9 10,9 C8.34,9 7,6.26 7,4 C7,2.34 8.34,1 10,1 L10,1 Z M4.94,7.74 C4.98,7.66 5,7.58 5,7.5 C5,7.42 4.98,7.34 4.94,7.26 C4.92,7.22 4.9,7.18 4.86,7.14 L2.86,5.14 C2.66,4.96 2.34,4.96 2.14,5.14 C1.96,5.34 1.96,5.66 2.14,5.86 L3.3,7 L0.5,7 C0.22,7 0,7.22 0,7.5 C0,7.78 0.22,8 0.5,8 L3.3,8 L2.14,9.14 C1.96,9.34 1.96,9.66 2.14,9.86 C2.24,9.96 2.38,10 2.5,10 C2.62,10 2.76,9.96 2.86,9.86 L4.86,7.86 C4.9,7.82 4.92,7.78 4.94,7.74 L4.94,7.74 Z M16.76,12.88 C16.56,12 15.9,11.28 15.02,11.04 L12.72,10.36 C12.58,10.32 12.46,10.26 12.36,10.14 C12.16,9.96 11.84,9.96 11.66,10.16 C11.46,10.34 11.46,10.66 11.66,10.86 C11.88,11.08 12.14,11.24 12.44,11.32 L14.74,12 C15.26,12.14 15.66,12.58 15.78,13.1 L15.94,13.8 C15.4,14.16 13.7,15 10,15 C6.3,15 4.6,14.14 4.06,13.8 L4.22,13.04 C4.34,12.5 4.76,12.06 5.3,11.92 L7.54,11.32 C7.84,11.24 8.12,11.08 8.36,10.86 C8.54,10.66 8.54,10.34 8.36,10.14 C8.16,9.96 7.84,9.96 7.64,10.14 C7.54,10.24 7.42,10.32 7.28,10.36 L5.04,10.96 C4.14,11.2 3.46,11.92 3.24,12.82 L3.02,13.9 C2.98,14.06 3.02,14.24 3.14,14.36 C3.22,14.42 4.86,16 10,16 C15.14,16 16.78,14.42 16.86,14.36 C16.98,14.24 17.02,14.06 16.98,13.9 L16.76,12.88 Z"> </path> </g> </g> </g>
</svg>
