<svg width="20px" height="20px" viewBox="0 0 20 20" version="1.1" xmlns="http://www.w3.org/2000/svg" xmlns:xlink="http://www.w3.org/1999/xlink">
<g stroke="none" stroke-width="1" fill-rule="evenodd"> <g id="do-no-disturb"> <path d="M15.474,10.7635 C16.694,9.9435 17.494,8.5635 17.494,7.0035 C17.494,4.5235 15.474,2.5035 12.994,2.5035 C11.434,2.5035 10.054,3.3035 9.234,4.5235 L7.354,2.6435 C7.234,2.5035 7.034,2.4635 6.854,2.5235 C6.674,2.5835 6.534,2.7235 6.514,2.9235 L5.514,9.4235 C5.494,9.5835 5.534,9.7435 5.654,9.8435 L10.154,14.3435 C10.254,14.4435 10.374,14.4835 10.494,14.4835 L10.574,14.4835 L17.074,13.4835 C17.274,13.4635 17.414,13.3235 17.474,13.1435 C17.534,12.9635 17.494,12.7635 17.354,12.6435 L15.474,10.7635 Z M12.994,3.5035 C14.914,3.5035 16.494,5.0835 16.494,7.0035 C16.494,8.3835 15.694,9.5835 14.514,10.1635 C14.474,10.1635 14.414,10.1835 14.374,10.2235 C13.954,10.4035 13.474,10.5035 12.994,10.5035 C11.054,10.5035 9.494,8.9435 9.494,7.0035 C9.494,6.5235 9.594,6.0435 9.774,5.6235 C9.814,5.5835 9.834,5.5235 9.834,5.4835 C10.414,4.3035 11.614,3.5035 12.994,3.5035 L12.994,3.5035 Z M15.954,12.6435 L10.674,13.4635 L6.534,9.3235 L7.354,4.0435 L8.774,5.4635 C8.594,5.9435 8.494,6.4635 8.494,7.0035 C8.494,9.4835 10.514,11.5035 12.994,11.5035 C13.534,11.5035 14.054,11.4035 14.534,11.2235 L15.954,12.6435 Z M11.134,8.8635 C11.234,8.9635 11.374,9.0035 11.494,9.0035 C11.614,9.0035 11.754,8.9635 11.854,8.8635 L12.994,7.7035 L14.134,8.8635 C14.234,8.9635 14.374,9.0035 14.494,9.0035 C14.614,9.0035 14.754,8.9635 14.854,8.8635 C15.034,8.6635 15.034,8.3435 14.854,8.1435 L13.694,7.0035 L14.854,5.8635 C15.034,5.6635 15.034,5.3435 14.854,5.1435 C14.654,4.9635 14.334,4.9635 14.134,5.1435 L12.994,6.3035 L11.854,5.1435 C11.654,4.9635 11.334,4.9635 11.134,5.1435 C10.954,5.3435 10.954,5.6635 11.134,5.8635 L12.294,7.0035 L11.134,8.1435 C10.954,8.3435 10.954,8.6635 11.134,8.8635 L11.134,8.8635 Z M6.994,16.3035 C6.714,16.5635 6.294,16.5635 6.014,16.3035 L3.694,13.9835 C3.434,13.7035 3.434,13.2835 3.694,13.0035 L5.354,11.3435 C5.554,11.1435 5.554,10.8435 5.354,10.6435 C5.154,10.4435 4.854,10.4435 4.654,10.6435 L2.994,12.3035 C2.334,12.9635 2.334,14.0235 2.994,14.6835 L5.314,17.0035 C5.654,17.3435 6.074,17.5035 6.514,17.5035 C6.934,17.5035 7.374,17.3435 7.694,17.0035 L9.354,15.3435 C9.554,15.1435 9.554,14.8435 9.354,14.6435 C9.154,14.4435 8.854,14.4435 8.654,14.6435 L6.994,16.3035 Z" id="®"></path> </g> </g>
</svg>
