<svg width="20px" height="20px" viewBox="0 0 20 20" version="1.1" xmlns="http://www.w3.org/2000/svg" xmlns:xlink="http://www.w3.org/1999/xlink">
<g stroke="none" stroke-width="1" fill-rule="evenodd"> <g id="email"> <path d="M4.5,17 C3.12,17 2,15.88 2,14.5 L2,5.5 C2,4.12 3.12,3 4.5,3 L15.5,3 C16.88,3 18,4.12 18,5.5 L18,14.5 C18,15.88 16.88,17 15.5,17 L4.5,17 Z M4.5,4 C3.68,4 3,4.68 3,5.5 L3,14.5 C3,15.32 3.68,16 4.5,16 L15.5,16 C16.32,16 17,15.32 17,14.5 L17,5.5 C17,4.68 16.32,4 15.5,4 L4.5,4 Z M10,11.5 C9.88,11.5 9.74,11.46 9.64,11.36 L4.14,5.86 C3.96,5.66 3.96,5.34 4.14,5.14 C4.34,4.96 4.66,4.96 4.86,5.14 L10,10.3 L15.14,5.14 C15.34,4.96 15.66,4.96 15.86,5.14 C16.04,5.34 16.04,5.66 15.86,5.86 L10.36,11.36 C10.26,11.46 10.12,11.5 10,11.5 L10,11.5 Z" id="X"></path> </g> </g>
</svg>
