<svg width="20px" height="20px" viewBox="0 0 20 20" version="1.1" xmlns="http://www.w3.org/2000/svg" xmlns:xlink="http://www.w3.org/1999/xlink"> <g id="Page-1" stroke="none" stroke-width="1" fill-rule="evenodd" sketch:type="MSPage"> <g id="paste" sketch:type="MSArtboardGroup"> <path d="M15.5,2 L4.5,2 C3.121,2 2,3.121 2,4.5 L2,15.5 C2,16.879 3.121,18 4.5,18 L15.5,18 C16.879,18 18,16.879 18,15.5 L18,4.5 C18,3.121 16.879,2 15.5,2 L15.5,2 Z M17,15.5 C17,16.327 16.327,17 15.5,17 L4.5,17 C3.673,17 3,16.327 3,15.5 L3,4.5 C3,3.673 3.673,3 4.5,3 L15.5,3 C16.327,3 17,3.673 17,4.5 L17,15.5 L17,15.5 Z M11.353,8.646 C11.158,8.451 10.842,8.451 10.646,8.646 L6.5,12.793 L6.5,10 C6.5,9.724 6.276,9.5 6,9.5 C5.724,9.5 5.5,9.724 5.5,10 L5.5,14 C5.5,14.065 5.513,14.13 5.538,14.191 C5.589,14.313 5.687,14.411 5.809,14.462 C5.87,14.487 5.935,14.5 6,14.5 L10,14.5 C10.276,14.5 10.5,14.276 10.5,14 C10.5,13.724 10.276,13.5 10,13.5 L7.207,13.5 L11.353,9.353 C11.549,9.158 11.549,8.842 11.353,8.646" id="Paste" sketch:type="MSShapeGroup"></path> </g> </g> </svg>
