<svg width="20px" height="20px" viewBox="0 0 20 20" version="1.1" xmlns="http://www.w3.org/2000/svg" xmlns:xlink="http://www.w3.org/1999/xlink">
<g stroke="none" stroke-width="1" fill-rule="evenodd"> <g id="sort-creation"> <path d="M9.5,17 C5.36,17 2,13.64 2,9.5 C2,5.36 5.36,2 9.5,2 C13.64,2 17,5.36 17,9.5 C17,9.78 16.78,10 16.5,10 C16.22,10 16,9.78 16,9.5 C16,5.92 13.08,3 9.5,3 C5.92,3 3,5.92 3,9.5 C3,13.08 5.92,16 9.5,16 C9.78,16 10,16.22 10,16.5 C10,16.78 9.78,17 9.5,17 L9.5,17 Z M6.5,11 C6.22,11 6,10.78 6,10.5 C6,10.22 6.22,10 6.5,10 L10,10 L10,5.5 C10,5.22 10.22,5 10.5,5 C10.78,5 11,5.22 11,5.5 L11,10.5 C11,10.78 10.78,11 10.5,11 L6.5,11 Z M12.5,18 C11.68,18 11,17.32 11,16.5 L11,12.5 C11,11.68 11.68,11 12.5,11 L16.5,11 C17.32,11 18,11.68 18,12.5 L18,16.5 C18,17.32 17.32,18 16.5,18 L12.5,18 Z M12.5,12 C12.22,12 12,12.22 12,12.5 L12,16.5 C12,16.78 12.22,17 12.5,17 L16.5,17 C16.78,17 17,16.78 17,16.5 L17,12.5 C17,12.22 16.78,12 16.5,12 L12.5,12 Z M14.5,16 C14.22,16 14,15.78 14,15.5 L14,14.3 L13.72,14.44 C13.48,14.58 13.18,14.48 13.06,14.22 C12.92,13.98 13.02,13.68 13.28,13.56 L14.28,13.06 C14.44,12.98 14.62,12.98 14.76,13.08 C14.92,13.16 15,13.32 15,13.5 L15,15.5 C15,15.78 14.78,16 14.5,16 L14.5,16 Z" id="≠"></path> </g> </g>
</svg>
