<svg width="20px" height="20px" viewBox="0 0 20 20" version="1.1" xmlns="http://www.w3.org/2000/svg" xmlns:xlink="http://www.w3.org/1999/xlink">
<g stroke="none" stroke-width="1" fill-rule="evenodd"> <g id="sort-date"> <path d="M2.5,7 C2.22,7 2,6.78 2,6.5 L2,3.5 C2,2.68 2.68,2 3.5,2 L16.5,2 C17.32,2 18,2.68 18,3.5 L18,6.5 C18,6.78 17.78,7 17.5,7 L2.5,7 Z M3,6 L17,6 L17,3.5 C17,3.22 16.78,3 16.5,3 L3.5,3 C3.22,3 3,3.22 3,3.5 L3,6 Z M3.5,18 C2.68,18 2,17.32 2,16.5 L2,8.5 C2,8.22 2.22,8 2.5,8 C2.78,8 3,8.22 3,8.5 L3,16.5 C3,16.78 3.22,17 3.5,17 L16.5,17 C16.78,17 17,16.78 17,16.5 L17,8.5 C17,8.22 17.22,8 17.5,8 C17.78,8 18,8.22 18,8.5 L18,16.5 C18,17.32 17.32,18 16.5,18 L3.5,18 Z M9,13.12 C9.12,13.12 9.2,13.16 9.26,13.22 C9.3,13.28 9.34,13.34 9.34,13.44 L9.34,14 L5.86,14 L5.86,13.68 C5.86,13.62 5.88,13.56 5.9,13.5 C5.94,13.42 5.98,13.36 6.04,13.3 L7.52,11.82 C7.64,11.68 7.76,11.56 7.86,11.46 C7.94,11.34 8.02,11.22 8.1,11.12 C8.16,11 8.2,10.88 8.24,10.78 C8.28,10.66 8.28,10.54 8.28,10.4 C8.28,10.18 8.22,10.02 8.12,9.9 C8,9.78 7.84,9.72 7.62,9.72 C7.54,9.72 7.46,9.74 7.38,9.76 C7.3,9.8 7.22,9.82 7.16,9.88 C7.1,9.92 7.06,9.98 7,10.04 C6.96,10.1 6.94,10.16 6.92,10.24 C6.88,10.36 6.82,10.44 6.74,10.46 C6.68,10.5 6.58,10.52 6.44,10.5 L5.94,10.4 C5.98,10.16 6.04,9.94 6.16,9.76 C6.26,9.58 6.38,9.42 6.54,9.3 C6.68,9.18 6.86,9.1 7.06,9.04 C7.24,8.96 7.46,8.94 7.68,8.94 C7.92,8.94 8.14,8.98 8.32,9.04 C8.52,9.12 8.68,9.22 8.82,9.34 C8.96,9.46 9.08,9.62 9.14,9.8 C9.22,9.96 9.26,10.16 9.26,10.38 C9.26,10.56 9.24,10.74 9.18,10.88 C9.14,11.04 9.06,11.2 8.96,11.34 C8.88,11.48 8.78,11.62 8.66,11.74 L8.28,12.16 L7.2,13.24 C7.32,13.2 7.44,13.18 7.56,13.16 C7.68,13.14 7.78,13.12 7.88,13.12 L9,13.12 Z M10.48,9 L13.96,9 L13.96,9.4 C13.96,9.52 13.96,9.62 13.92,9.7 L13.86,9.88 L12.02,13.68 C11.98,13.78 11.92,13.84 11.84,13.9 C11.76,13.96 11.66,14 11.52,14 L10.84,14 L12.7,10.28 L12.84,10.04 C12.9,9.98 12.94,9.9 13,9.84 L10.7,9.84 C10.64,9.84 10.6,9.82 10.54,9.78 C10.5,9.74 10.48,9.68 10.48,9.62 L10.48,9 Z" id="c"></path> </g> </g>
</svg>
