<svg width="22px" height="44px" viewBox="0 0 22 44" version="1.1" xmlns="http://www.w3.org/2000/svg" xmlns:xlink="http://www.w3.org/1999/xlink" xml:space="preserve" style="fill-rule:evenodd;clip-rule:evenodd;stroke-linejoin:round;stroke-miterlimit:1.41421;"> <g> <path d="M0,0l0,40.5c0,0.28 0.22,0.42 0.48,0.32l10.04,-3.64c0.28,-0.1 0.7,-0.1 0.96,0l10.04,3.64c0.28,0.1 0.48,-0.04 0.48,-0.32l0,-40.5l-22,0ZM14.46,24.08l1.68,5.26c0.08,0.18 0,0.38 -0.16,0.5c-0.14,0.1 -0.36,0.1 -0.52,0l-4.46,-3.24l-4.46,3.24c-0.08,0.06 -0.18,0.1 -0.28,0.1c-0.08,0 -0.18,-0.04 -0.24,-0.1c-0.16,-0.12 -0.24,-0.32 -0.16,-0.5l1.68,-5.26l-4.46,-3.24c-0.14,-0.12 -0.22,-0.32 -0.16,-0.52c0.08,-0.18 0.24,-0.32 0.44,-0.32l5.52,0l1.68,-5.24c0.14,-0.36 0.74,-0.36 0.88,0l1.7,5.24l5.5,0c0.2,0 0.36,0.14 0.44,0.32c0.06,0.2 -0.02,0.4 -0.16,0.52l-4.46,3.24Z"></path> </g> </svg>
