<svg width="100%" height="100%" viewBox="0 0 22 49" version="1.1" xmlns="http://www.w3.org/2000/svg" xmlns:xlink="http://www.w3.org/1999/xlink" xml:space="preserve" style="fill-rule:evenodd;clip-rule:evenodd;stroke-linejoin:round;stroke-miterlimit:1.41421;"> <g> <path d="M11,20.48c-0.18,0 -0.36,0.08 -0.44,0.26l-1.68,5.26l-5.54,0c-0.18,0 -0.36,0.12 -0.42,0.3c-0.06,0.2 0.02,0.4 0.16,0.5l4.46,3.24l-1.68,5.26c-0.08,0.18 0,0.38 0.16,0.5c0.06,0.06 0.16,0.1 0.24,0.1c0.1,0 0.2,-0.04 0.28,-0.1l4.46,-3.24l4.46,3.24c0.08,0.06 0.18,0.08 0.28,0.08c0.08,0 0.18,-0.02 0.24,-0.08c0.16,-0.12 0.24,-0.32 0.16,-0.5l-1.68,-5.26l4.46,-3.24c0.14,-0.1 0.22,-0.3 0.16,-0.5c-0.08,-0.18 -0.24,-0.3 -0.42,-0.3l-5.52,0l-1.7,-5.26c-0.08,-0.18 -0.26,-0.26 -0.44,-0.26ZM11,22.66l1.2,3.64l0.22,0.7l4.54,0l-3.68,2.66l0.22,0.7l1.18,3.64l-3.68,-2.66l-3.68,2.66l1.18,-3.64l0.22,-0.7l-3.68,-2.66l4.56,0l0.22,-0.7l1.18,-3.64Z"> </path></g> </svg>
