<svg width="20px" height="20px" viewBox="0 0 20 20" version="1.1" xmlns="http://www.w3.org/2000/svg" xmlns:xlink="http://www.w3.org/1999/xlink">
<g stroke="none" stroke-width="1" fill-rule="evenodd"> <g id="today"> <path d="M2.5,7 C2.22,7 2,6.78 2,6.5 L2,3.5 C2,2.68 2.68,2 3.5,2 L16.5,2 C17.32,2 18,2.68 18,3.5 L18,6.5 C18,6.78 17.78,7 17.5,7 L2.5,7 Z M3,6 L17,6 L17,3.5 C17,3.22 16.78,3 16.5,3 L3.5,3 C3.22,3 3,3.22 3,3.5 L3,6 Z M3.5,18 C2.68,18 2,17.32 2,16.5 L2,8.5 C2,8.22 2.22,8 2.5,8 C2.78,8 3,8.22 3,8.5 L3,16.5 C3,16.78 3.22,17 3.5,17 L16.5,17 C16.78,17 17,16.78 17,16.5 L17,8.5 C17,8.22 17.22,8 17.5,8 C17.78,8 18,8.22 18,8.5 L18,16.5 C18,17.32 17.32,18 16.5,18 L3.5,18 Z" id="E"></path> </g> </g>
</svg>
