<svg width="20px" height="20px" viewBox="0 0 20 20" version="1.1" xmlns="http://www.w3.org/2000/svg" xmlns:xlink="http://www.w3.org/1999/xlink">
<g stroke="none" stroke-width="1" fill-rule="evenodd"> <g> <g transform="translate(1.000000, 5.000000)"> <path d="M10.04,7.78 C9.88,7.56 10.16,7.1 10.16,7.1 L9.44,5.24 C9.44,5.24 6.92,10 4.5,10 C2.02,10 0,7.76 0,5 C0,2.24 2.02,0 4.5,0 C6.22,0 7.3,1.26 7.96,2.22 C8.12,2.44 7.84,2.92 7.84,2.92 L8.56,4.76 C8.56,4.76 11.08,0 13.5,0 C15.98,0 18,2.24 18,5 C18,7.76 15.98,10 13.5,10 C11.78,10 10.7,8.74 10.04,7.78 Z" fill-opacity="0.06"></path> <path d="M13.5,10 C11.78,10 10.7,8.74 10.04,7.78 C9.88,7.56 9.94,7.24 10.16,7.1 C10.38,6.94 10.7,6.98 10.86,7.22 C11.72,8.44 12.54,9 13.5,9 C15.42,9 17,7.2 17,5 C17,2.8 15.42,1 13.5,1 C11.68,1 10.6,3.06 9.44,5.24 C8.2,7.58 6.92,10 4.5,10 C2.02,10 0,7.76 0,5 C0,2.24 2.02,0 4.5,0 C6.22,0 7.3,1.26 7.96,2.22 C8.12,2.44 8.06,2.76 7.84,2.92 C7.62,3.06 7.3,3.02 7.14,2.78 C6.28,1.56 5.46,1 4.5,1 C2.58,1 1,2.8 1,5 C1,7.2 2.58,9 4.5,9 C6.32,9 7.4,6.94 8.56,4.76 C9.8,2.42 11.08,0 13.5,0 C15.98,0 18,2.24 18,5 C18,7.76 15.98,10 13.5,10 L13.5,10 Z"></path> </g> </g> </g>
</svg>
