<svg class="attachment" width="20px" height="20px" viewBox="0 0 20 20" version="1.1" xmlns="http://www.w3.org/2000/svg" xmlns:xlink="http://www.w3.org/1999/xlink"> <g stroke="none" stroke-width="1" fill-rule="evenodd"> <g id="attachment"> <path d="M13.4075,5.2925 C13.0275,4.9125 12.3675,4.9125 11.9875,5.2925 L10.3075,6.9925 L8.7475,6.9925 C7.8075,6.9925 6.9475,7.3525 6.2675,8.0125 L5.1475,9.1325 C5.0675,9.2325 5.0075,9.3525 5.0075,9.4925 C5.0075,9.6125 5.0675,9.7525 5.1475,9.8325 L7.3075,11.9925 L5.1475,14.1325 C4.9675,14.3325 4.9675,14.6525 5.1475,14.8525 C5.2475,14.9525 5.3875,14.9925 5.5075,14.9925 C5.6475,14.9925 5.7675,14.9525 5.8675,14.8525 L8.0075,12.6925 L10.1675,14.8525 C10.2475,14.9525 10.3875,14.9925 10.5075,14.9925 C10.6475,14.9925 10.7675,14.9525 10.8675,14.8525 L11.9875,13.7325 C12.6475,13.0725 13.0075,12.1925 13.0075,11.2525 L13.0075,9.6925 L14.7075,8.0125 C15.0875,7.6125 15.0875,6.9725 14.7075,6.5925 L13.4075,5.2925 Z M13.9875,7.2925 L12.1675,9.1325 C12.0675,9.2325 12.0075,9.3525 12.0075,9.4925 L12.0075,11.2525 C12.0075,11.9125 11.7475,12.5525 11.2875,13.0125 L10.5075,13.7925 L6.2075,9.4925 L6.9875,8.7125 C7.4475,8.2525 8.0875,7.9925 8.7475,7.9925 L10.5075,7.9925 C10.6475,7.9925 10.7675,7.9325 10.8675,7.8325 L12.7075,6.0125 L13.9875,7.2925 Z" id="Q"></path> </g> </g> </svg>
