<svg class="clip" width="20" height="20" version="1.1" xmlns="http://www.w3.org/2000/svg" xmlns:xlink="http://www.w3.org/1999/xlink" x="0px" y="0px" viewBox="0 0 20 20" enable-background="new 0 0 20 20" xml:space="preserve"> <g> <path id="XMLID_2_" d="M7,17c-1.335,0-2.591-0.521-3.536-1.465S2,13.336,2,12c0-1.335,0.52-2.591,1.464-3.536l5.312-5.312 c0.195-0.195,0.512-0.195,0.707,0s0.195,0.512,0,0.707L4.171,9.171C3.416,9.927,3,10.932,3,12s0.416,2.073,1.171,2.828 c1.511,1.512,4.146,1.512,5.657,0l6.441-6.441c0.473-0.472,0.732-1.1,0.732-1.768c0-0.668-0.26-1.296-0.732-1.768 c-0.945-0.945-2.592-0.943-3.535,0l-6.441,6.441c-0.39,0.39-0.39,1.024,0,1.414c0.378,0.377,1.036,0.377,1.414,0l4.562-4.562 c0.195-0.195,0.512-0.195,0.707,0s0.195,0.512,0,0.707l-4.562,4.562c-0.755,0.756-2.073,0.756-2.828,0 c-0.78-0.779-0.78-2.049,0-2.828l6.441-6.441c1.32-1.321,3.627-1.323,4.949,0c0.661,0.661,1.025,1.54,1.025,2.475 s-0.364,1.814-1.025,2.475l-6.441,6.441C9.591,16.479,8.335,17,7,17z"></path> </g> </svg>
