<svg width="20px" height="20px" viewBox="0 0 20 20" version="1.1" xmlns="http://www.w3.org/2000/svg" xmlns:xlink="http://www.w3.org/1999/xlink">
<g stroke="none" stroke-width="1" fill-rule="evenodd"> <g id="completed"> <path d="M7.48412073,16.9975 C7.36412073,16.9975 7.24412073,16.9375 7.14412073,16.8575 C5.66412073,15.3575 4.00412073,14.0375 2.24412073,12.9175 C2.00412073,12.7775 1.92412073,12.4575 2.08412073,12.2375 C2.22412073,11.9975 2.54412073,11.9375 2.76412073,12.0775 C4.42412073,13.1175 5.98412073,14.3375 7.38412073,15.6975 C10.3441207,10.8175 13.3841207,6.9175 17.1441207,3.1375 C17.3441207,2.9575 17.6641207,2.9575 17.8641207,3.1375 C18.0441207,3.3375 18.0441207,3.6575 17.8641207,3.8575 C14.0041207,7.6975 10.9441207,11.6775 7.92412073,16.7575 C7.84412073,16.8775 7.70412073,16.9775 7.56412073,16.9975 L7.48412073,16.9975 Z" id="H"></path> </g> </g>
</svg>
