<svg width="20px" height="20px" viewBox="0 0 20 20" version="1.1" xmlns="http://www.w3.org/2000/svg" xmlns:xlink="http://www.w3.org/1999/xlink">
<g id="Page-1" stroke="none" stroke-width="1" fill-rule="evenodd" sketch:type="MSPage"> <g id="copy" sketch:type="MSArtboardGroup"> <path d="M12.7921708,6.5 L8.647,10.646 C8.451,10.842 8.451,11.158 8.647,11.353 C8.744,11.451 8.872,11.5 9,11.5 C9.128,11.5 9.256,11.451 9.354,11.353 L13.5,7.207 L13.5,10 C13.5,10.276 13.724,10.5 14,10.5 C14.276,10.5 14.5,10.276 14.5,10 L14.5,6.01573317 C14.5041978,5.88263558 14.4555311,5.7480518 14.354,5.646 C14.2519482,5.54446887 14.1173644,5.4958022 13.9841257,5.5 L10,5.5 C9.724,5.5 9.5,5.724 9.5,6 C9.5,6.276 9.724,6.5 10,6.5 L12.7921708,6.5 L12.7921708,6.5 Z M2.5,5.5 C2.224,5.5 2,5.276 2,5 L2,4.5 C2,3.121 3.121,2 4.5,2 L5,2 C5.276,2 5.5,2.224 5.5,2.5 C5.5,2.776 5.276,3 5,3 L4.5,3 C3.673,3 3,3.673 3,4.5 L3,5 C3,5.276 2.776,5.5 2.5,5.5 Z M5,18 L4.5,18 C3.121,18 2,16.879 2,15.5 L2,15 C2,14.724 2.224,14.5 2.5,14.5 C2.776,14.5 3,14.724 3,15 L3,15.5 C3,16.327 3.673,17 4.5,17 L5,17 C5.276,17 5.5,17.224 5.5,17.5 C5.5,17.776 5.276,18 5,18 Z M15.5,18 L15,18 C14.724,18 14.5,17.776 14.5,17.5 C14.5,17.224 14.724,17 15,17 L15.5,17 C16.327,17 17,16.327 17,15.5 L17,15 C17,14.724 17.224,14.5 17.5,14.5 C17.776,14.5 18,14.724 18,15 L18,15.5 C18,16.879 16.879,18 15.5,18 Z M17.5,5.5 C17.224,5.5 17,5.276 17,5 L17,4.5 C17,3.673 16.327,3 15.5,3 L15,3 C14.724,3 14.5,2.776 14.5,2.5 C14.5,2.224 14.724,2 15,2 L15.5,2 C16.879,2 18,3.121 18,4.5 L18,5 C18,5.276 17.776,5.5 17.5,5.5 Z M2.5,12.5 C2.224,12.5 2,12.276 2,12 L2,8 C2,7.724 2.224,7.5 2.5,7.5 C2.776,7.5 3,7.724 3,8 L3,12 C3,12.276 2.776,12.5 2.5,12.5 Z M17.5,12.5 C17.224,12.5 17,12.276 17,12 L17,8 C17,7.724 17.224,7.5 17.5,7.5 C17.776,7.5 18,7.724 18,8 L18,12 C18,12.276 17.776,12.5 17.5,12.5 Z M12,3 L8,3 C7.724,3 7.5,2.776 7.5,2.5 C7.5,2.224 7.724,2 8,2 L12,2 C12.276,2 12.5,2.224 12.5,2.5 C12.5,2.776 12.276,3 12,3 Z M12,18 L8,18 C7.724,18 7.5,17.776 7.5,17.5 C7.5,17.224 7.724,17 8,17 L12,17 C12.276,17 12.5,17.224 12.5,17.5 C12.5,17.776 12.276,18 12,18 Z" id="Copy" sketch:type="MSShapeGroup"></path> </g> </g>
</svg>
