<svg width="20px" height="20px" viewBox="0 0 20 20" version="1.1" xmlns="http://www.w3.org/2000/svg" xmlns:xlink="http://www.w3.org/1999/xlink">
<g id="Page-1" stroke="none" stroke-width="1" fill-rule="evenodd" sketch:type="MSPage"> <g id="duplicate" sketch:type="MSArtboardGroup"> <path d="M15.5,2 L7.5,2 C6.121,2 5,3.121 5,4.5 L5,6 L4.5,6 C3.121,6 2,7.121 2,8.5 C2,8.776 2.224,9 2.5,9 C2.776,9 3,8.776 3,8.5 C3,7.673 3.673,7 4.5,7 L5,7 L5,12.5 C5,13.879 6.121,15 7.5,15 L13,15 L13,15.5 C13,16.327 12.327,17 11.5,17 C11.224,17 11,17.224 11,17.5 C11,17.776 11.224,18 11.5,18 C12.879,18 14,16.879 14,15.5 L14,15 L15.5,15 C16.879,15 18,13.879 18,12.5 L18,4.5 C18,3.121 16.879,2 15.5,2 L15.5,2 Z M17,12.5 C17,13.327 16.327,14 15.5,14 L7.5,14 C6.673,14 6,13.327 6,12.5 L6,4.5 C6,3.673 6.673,3 7.5,3 L15.5,3 C16.327,3 17,3.673 17,4.5 L17,12.5 Z M2.5,14 C2.776,14 3,13.776 3,13.5 L3,11.5 C3,11.224 2.776,11 2.5,11 C2.224,11 2,11.224 2,11.5 L2,13.5 C2,13.776 2.224,14 2.5,14 Z M8.5,17 L6.5,17 C6.224,17 6,17.224 6,17.5 C6,17.776 6.224,18 6.5,18 L8.5,18 C8.776,18 9,17.776 9,17.5 C9,17.224 8.776,17 8.5,17 Z M4.5,17 C3.673,17 3,16.327 3,15.5 C3,15.224 2.776,15 2.5,15 C2.224,15 2,15.224 2,15.5 C2,16.879 3.121,18 4.5,18 C4.776,18 5,17.776 5,17.5 C5,17.224 4.776,17 4.5,17 Z M14.691,5.038 C14.63,5.013 14.565,5 14.5,5 L10.5,5 C10.224,5 10,5.224 10,5.5 C10,5.776 10.224,6 10.5,6 L13.293,6 L10.146,9.146 C9.951,9.342 9.951,9.658 10.146,9.853 C10.244,9.951 10.372,10 10.5,10 C10.628,10 10.756,9.951 10.853,9.853 L14,6.707 L14,9.5 C14,9.776 14.224,10 14.5,10 C14.776,10 15,9.776 15,9.5 L15,5.5 C15,5.435 14.987,5.37 14.962,5.309 C14.911,5.187 14.813,5.089 14.691,5.038" id="Fill-1" sketch:type="MSShapeGroup"></path> </g> </g>
</svg>
