<svg class="offline" xmlns="http://www.w3.org/2000/svg" xmlns:xlink="http://www.w3.org/1999/xlink" width="20px" height="20px" viewBox="0 0 20 20" version="1.1" xml:space="preserve" style="fill-rule:evenodd;clip-rule:evenodd;stroke-linejoin:round;stroke-miterlimit:1.41421;"> <g> <path d="M7.472,9.999l2.028,0c0.147,0 0.287,0.064 0.382,0.177c0.095,0.112 0.136,0.26 0.111,0.405l-0.587,3.525l3.192,-5.107l-2.098,0c-0.15,0 -0.291,-0.067 -0.386,-0.183c-0.095,-0.116 -0.133,-0.268 -0.104,-0.415l0.543,-2.716l-3.081,4.314ZM8.5,16.999c-0.059,0 -0.119,-0.011 -0.177,-0.032c-0.223,-0.085 -0.355,-0.315 -0.316,-0.55l0.903,-5.418l-2.41,0c-0.187,0 -0.359,-0.104 -0.444,-0.271c-0.086,-0.167 -0.071,-0.367 0.038,-0.52l4.999,-7c0.138,-0.192 0.394,-0.26 0.607,-0.168c0.215,0.094 0.336,0.326 0.291,0.557l-0.88,4.402l2.389,0c0.182,0 0.35,0.099 0.438,0.258c0.088,0.159 0.083,0.353 -0.014,0.507l-5,8c-0.093,0.15 -0.255,0.235 -0.424,0.235"></path> </g> </svg>
