<svg width="20px" height="20px" viewBox="0 0 20 20" version="1.1" xmlns="http://www.w3.org/2000/svg" xmlns:xlink="http://www.w3.org/1999/xlink">
<g stroke="none" stroke-width="1" fill-rule="evenodd"> <g> <path d="M4.5,6 C3.12,6 2,7.12 2,8.5 L2,14.5 C2,14.78 2.22,15 2.5,15 L5,15 L5,17.5 C5,17.78 5.22,18 5.5,18 L14.5,18 C14.78,18 15,17.78 15,17.5 L15,15 L17.5,15 C17.78,15 18,14.78 18,14.5 L18,8.5 C18,7.12 16.88,6 15.5,6 L4.5,6 Z M17,14 L15,14 L15,12 L15.5,12 C15.78,12 16,11.78 16,11.5 C16,11.22 15.78,11 15.5,11 L4.5,11 C4.22,11 4,11.22 4,11.5 C4,11.78 4.22,12 4.5,12 L5,12 L5,14 L3,14 L3,8.5 C3,7.68 3.68,7 4.5,7 L15.5,7 C16.32,7 17,7.68 17,8.5 L17,14 Z M14,12 L14,17 L6,17 L6,12 L14,12 Z" id="Z"></path> <path d="M5.5,5 C5.78,5 6,4.78 6,4.5 L6,3 L14,3 L14,4.5 C14,4.78 14.22,5 14.5,5 C14.78,5 15,4.78 15,4.5 L15,2.5 C15,2.22 14.78,2 14.5,2 L5.5,2 C5.22,2 5,2.22 5,2.5 L5,4.5 C5,4.78 5.22,5 5.5,5 L5.5,5 Z" id="Path"></path> </g> </g>
</svg>
