<svg class="recurrence" width="20px" height="20px" viewBox="0 0 20 20" version="1.1" xmlns="http://www.w3.org/2000/svg" xmlns:xlink="http://www.w3.org/1999/xlink"> <g stroke="none" stroke-width="1" fill-rule="evenodd"> <g id="recurrence"> <path d="M17.5193115,10 C17.2393115,10 16.9993115,10.2 16.9793115,10.46 C16.7393115,14.12 13.6793115,17 10.0193115,17 C6.15931146,17 3.01931146,13.86 3.01931146,10 C3.01931146,6.14 6.15931146,3 10.0193115,3 C13.3393115,3 15.2593115,5.48 16.3993115,6.98 C16.4193115,6.98 16.4193115,7 16.4193115,7 L12.9793115,7 C12.7193115,7 12.4793115,7.22 12.4793115,7.5 C12.4793115,7.78 12.7193115,8 12.9793115,8 C17.8393115,8 17.5593115,8.02 17.6793115,7.96 C17.8593115,7.88 17.9793115,7.7 17.9793115,7.5 L17.9793115,2.5 C17.9793115,2.22 17.7593115,2 17.4793115,2 C17.2193115,2 16.9793115,2.22 16.9793115,2.5 L16.9793115,6.08 C15.7793115,4.52 13.6193115,2 10.0193115,2 C5.59931146,2 2.01931146,5.58 2.01931146,10 C2.01931146,14.42 5.59931146,18 10.0193115,18 C14.1993115,18 17.6993115,14.72 17.9793115,10.54 C17.9993115,10.26 17.7993115,10.02 17.5193115,10 L17.5193115,10 Z M9.47931146,5 C9.21931146,5 8.97931146,5.22 8.97931146,5.5 L8.97931146,10.5 C8.97931146,10.78 9.21931146,11 9.47931146,11 L13.4793115,11 C13.7593115,11 13.9793115,10.78 13.9793115,10.5 C13.9793115,10.22 13.7593115,10 13.4793115,10 L9.97931146,10 L9.97931146,5.5 C9.97931146,5.22 9.75931146,5 9.47931146,5 L9.47931146,5 Z" id="f"></path> </g> </g> </svg>
