<svg class="reminder" width="20px" height="20px" viewBox="0 0 20 20" version="1.1" xmlns="http://www.w3.org/2000/svg" xmlns:xlink="http://www.w3.org/1999/xlink"> <g stroke="none" stroke-width="1" fill-rule="evenodd"> <g id="reminder"> <path d="M3.26,6.6 C3.1,6.24 3,5.88 3,5.5 C3,4.12 4.12,3 5.5,3 C6.04,3 6.54,3.18 6.98,3.5 C7.2,3.66 7.52,3.62 7.68,3.4 C7.86,3.18 7.8,2.86 7.58,2.7 C6.98,2.24 6.24,2 5.5,2 C3.58,2 2,3.58 2,5.5 C2,6.02 2.12,6.54 2.38,7.04 C2.46,7.22 2.64,7.32 2.82,7.32 C2.9,7.32 2.98,7.3 3.04,7.28 C3.3,7.14 3.4,6.84 3.26,6.6 L3.26,6.6 Z M14.5,2 C13.76,2 13.04,2.24 12.42,2.7 C12.2,2.86 12.16,3.18 12.32,3.4 C12.48,3.62 12.8,3.66 13.02,3.5 C13.46,3.18 13.98,3 14.5,3 C15.88,3 17,4.12 17,5.5 C17,5.88 16.92,6.24 16.74,6.6 C16.62,6.84 16.72,7.14 16.96,7.28 C17.04,7.3 17.1,7.32 17.18,7.32 C17.36,7.32 17.54,7.22 17.64,7.04 C17.88,6.54 18,6.02 18,5.5 C18,3.58 16.44,2 14.5,2 L14.5,2 Z M17,11 C17,7.14 13.86,4 10,4 C6.14,4 3,7.14 3,11 C3,13 3.84,14.82 5.2,16.1 L4.14,17.14 C3.96,17.34 3.96,17.66 4.14,17.86 C4.24,17.96 4.38,18 4.5,18 C4.62,18 4.76,17.96 4.86,17.86 L5.98,16.72 C7.12,17.52 8.5,18 10,18 C11.5,18 12.88,17.52 14.02,16.72 L15.14,17.86 C15.24,17.96 15.38,18 15.5,18 C15.62,18 15.76,17.96 15.86,17.86 C16.04,17.66 16.04,17.34 15.86,17.14 L14.8,16.1 C16.16,14.82 17,13 17,11 L17,11 Z M4,11 C4,7.7 6.7,5 10,5 C13.3,5 16,7.7 16,11 C16,14.3 13.3,17 10,17 C6.7,17 4,14.3 4,11 L4,11 Z M10.5,7 C10.22,7 10,7.22 10,7.5 L10,11 L7.46,11 C7.2,11 6.96,11.22 6.96,11.5 C6.96,11.78 7.2,12 7.46,12 L10.5,12 C10.78,12 11,11.78 11,11.5 L11,7.5 C11,7.22 10.78,7 10.5,7 L10.5,7 Z" id="…"></path> </g> </g> </svg>
