<svg class="speech" width="20px" height="20px" viewBox="0 0 20 20" version="1.1" xmlns="http://www.w3.org/2000/svg" xmlns:xlink="http://www.w3.org/1999/xlink"> <g stroke="none" stroke-width="1" fill-rule="evenodd"> <g id="speech"> <path d="M10,13 C11.92,13 13.5,11.42 13.5,9.5 L13.5,5.5 C13.5,3.58 11.92,2 10,2 C8.08,2 6.5,3.58 6.5,5.5 L6.5,9.5 C6.5,11.42 8.08,13 10,13 L10,13 Z M7.5,5.5 C7.5,4.12 8.62,3 10,3 C11.38,3 12.5,4.12 12.5,5.5 L12.5,9.5 C12.5,10.88 11.38,12 10,12 C8.62,12 7.5,10.88 7.5,9.5 L7.5,5.5 Z M15.5,8.5 C15.5,8.22 15.28,8 15,8 C14.72,8 14.5,8.22 14.5,8.5 L14.5,9.5 C14.5,11.98 12.48,14 10,14 C7.52,14 5.5,11.98 5.5,9.5 L5.5,8.5 C5.5,8.22 5.28,8 5,8 C4.72,8 4.5,8.22 4.5,8.5 L4.5,9.5 C4.5,12.36 6.7,14.72 9.5,14.98 L9.5,17 L6,17 C5.72,17 5.5,17.22 5.5,17.5 C5.5,17.78 5.72,18 6,18 L14,18 C14.28,18 14.5,17.78 14.5,17.5 C14.5,17.22 14.28,17 14,17 L10.5,17 L10.5,14.98 C13.3,14.72 15.5,12.36 15.5,9.5 L15.5,8.5 Z" id="O"></path> </g> </g> </svg>
