<svg class="sync" xmlns="http://www.w3.org/2000/svg" xmlns:xlink="http://www.w3.org/1999/xlink" width="20px" height="20px" viewBox="0 0 20 20" version="1.1" xml:space="preserve" style="fill-rule:evenodd;clip-rule:evenodd;stroke-linejoin:round;stroke-miterlimit:1.41421;"> <g> <g> <path d="M10,16c-0.281,-0.002 -0.56,-0.019 -0.839,-0.058c-0.562,-0.079 -1.113,-0.238 -1.631,-0.472c-1.098,-0.497 -2.035,-1.328 -2.661,-2.359c-0.317,-0.521 -0.553,-1.091 -0.698,-1.684c-0.157,-0.641 -0.206,-1.307 -0.147,-1.964c0.052,-0.594 0.194,-1.179 0.42,-1.731c0.264,-0.648 0.644,-1.248 1.115,-1.766c0.501,-0.553 1.106,-1.01 1.774,-1.342c0.688,-0.342 1.44,-0.548 2.206,-0.606c0.579,-0.044 1.161,-0.003 1.727,0.125c0.311,0.07 0.613,0.168 0.91,0.281l0.042,0.018c0.111,0.061 0.198,0.147 0.245,0.266c0.087,0.221 0.002,0.481 -0.199,0.607c-0.053,0.033 -0.111,0.055 -0.171,0.067c-0.078,0.015 -0.153,0.008 -0.229,-0.009c-0.089,-0.03 -0.176,-0.065 -0.265,-0.096c-0.219,-0.074 -0.441,-0.136 -0.668,-0.183c-0.431,-0.09 -0.877,-0.113 -1.316,-0.079c-0.496,0.037 -0.986,0.149 -1.448,0.332c-0.861,0.339 -1.62,0.921 -2.174,1.662c-0.339,0.453 -0.6,0.963 -0.768,1.504c-0.169,0.542 -0.243,1.113 -0.221,1.681c0.023,0.601 0.154,1.197 0.389,1.752c0.258,0.611 0.64,1.168 1.114,1.632c0.475,0.463 1.042,0.832 1.66,1.075c0.562,0.222 1.164,0.339 1.768,0.347c0.566,0.007 1.133,-0.081 1.669,-0.263c0.649,-0.219 1.251,-0.575 1.758,-1.036c0.565,-0.514 1.011,-1.157 1.291,-1.868c0.183,-0.462 0.295,-0.952 0.332,-1.448c0.037,-0.479 0.003,-0.961 -0.103,-1.431c-0.06,-0.264 -0.144,-0.521 -0.24,-0.774l-0.015,-0.044c-0.028,-0.123 -0.022,-0.245 0.036,-0.359c0.027,-0.055 0.065,-0.105 0.111,-0.146c0.177,-0.159 0.45,-0.171 0.638,-0.026c0.063,0.048 0.108,0.108 0.146,0.177c0.035,0.081 0.033,0.081 0.065,0.164c0.092,0.258 0.174,0.52 0.234,0.788c0.111,0.491 0.158,0.995 0.139,1.498c-0.023,0.6 -0.136,1.195 -0.335,1.762c-0.257,0.73 -0.658,1.408 -1.172,1.987c-0.559,0.63 -1.251,1.141 -2.019,1.489c-0.659,0.298 -1.365,0.468 -2.085,0.518c-0.128,0.007 -0.256,0.011 -0.385,0.012Z"></path> </g> </g> </svg>
