<svg width="20px" height="20px" viewBox="0 0 20 20" version="1.1" xmlns="http://www.w3.org/2000/svg" xmlns:xlink="http://www.w3.org/1999/xlink">
<g stroke="none" stroke-width="1" fill-rule="evenodd"> <g id="week"> <path d="M2.5,7 C2.22,7 2,6.78 2,6.5 L2,3.5 C2,2.68 2.68,2 3.5,2 L16.5,2 C17.32,2 18,2.68 18,3.5 L18,6.5 C18,6.78 17.78,7 17.5,7 L2.5,7 Z M3,6 L17,6 L17,3.5 C17,3.22 16.78,3 16.5,3 L3.5,3 C3.22,3 3,3.22 3,3.5 L3,6 Z M3.5,18 C2.68,18 2,17.32 2,16.5 L2,8.5 C2,8.22 2.22,8 2.5,8 C2.78,8 3,8.22 3,8.5 L3,16.5 C3,16.78 3.22,17 3.5,17 L16.5,17 C16.78,17 17,16.78 17,16.5 L17,8.5 C17,8.22 17.22,8 17.5,8 C17.78,8 18,8.22 18,8.5 L18,16.5 C18,17.32 17.32,18 16.5,18 L3.5,18 Z M5.5,15 C5.22,15 5,14.78 5,14.5 L5,9.5 C5,9.22 5.22,9 5.5,9 C5.78,9 6,9.22 6,9.5 L6,14.5 C6,14.78 5.78,15 5.5,15 L5.5,15 Z M8.5,15 C8.22,15 8,14.78 8,14.5 L8,9.5 C8,9.22 8.22,9 8.5,9 C8.78,9 9,9.22 9,9.5 L9,14.5 C9,14.78 8.78,15 8.5,15 L8.5,15 Z M11.5,15 C11.22,15 11,14.78 11,14.5 L11,9.5 C11,9.22 11.22,9 11.5,9 C11.78,9 12,9.22 12,9.5 L12,14.5 C12,14.78 11.78,15 11.5,15 L11.5,15 Z M14.5,15 C14.22,15 14,14.78 14,14.5 L14,9.5 C14,9.22 14.22,9 14.5,9 C14.78,9 15,9.22 15,9.5 L15,14.5 C15,14.78 14.78,15 14.5,15 L14.5,15 Z" id="F"></path> </g> </g>
</svg>
